Coordinates
version=1
nRows=24
nColumns=24
inDegrees=yes

Units are S.I. units (second, meters, Newtons, ...)
Angles are in degrees.

endheader
time	pelvis_tilt	pelvis_list	pelvis_rotation	pelvis_tx	pelvis_ty	pelvis_tz	hip_flexion_r	hip_adduction_r	hip_rotation_r	knee_angle_r	ankle_angle_r	subtalar_angle_r	mtp_angle_r	hip_flexion_l	hip_adduction_l	hip_rotation_l	knee_angle_l	ankle_angle_l	subtalar_angle_l	mtp_angle_l	lumbar_extension	lumbar_bending	lumbar_rotation
      1.04583333	      1.68460323	     -4.23584787	     -0.66285700	     -0.15682428	      1.05379095	      0.36258343	    -16.41258103	      9.25590190	     -0.67894127	     -4.18321861	      8.39466254	    -10.85718935	     -2.91278607	     19.42807298	     -2.03741793	     -1.84122832	     -0.32411182	      4.94314437	     -0.30521528	     -4.47309469	      1.62230423	      7.54291306	     -0.84231948
      1.05000000	      1.67379098	     -4.20983796	     -0.63334093	     -0.15105879	      1.05314992	      0.36232375	    -16.55833654	      9.21400434	     -0.63368823	     -4.54490483	      8.53225567	    -10.85383265	     -2.90924972	     19.28446223	     -1.94096966	     -1.97882143	      0.00517787	      4.66051137	      0.09162900	     -4.47170363	      1.74043422	      7.51306884	     -0.84864303
      1.05416667	      1.62593673	     -4.24810863	     -0.63419255	     -0.14552048	      1.05247760	      0.36206446	    -16.60536029	      9.23224883	     -0.61561435	     -4.99922626	      8.52975980	    -10.88152457	     -2.90851929	     19.20317298	     -1.91891501	     -1.98036125	      0.21846119	      4.60285841	      0.19771750	     -4.46964338	      1.76723895	      7.48979857	     -0.85454977
      1.05833333	      1.59239325	     -4.25700400	     -0.63732032	     -0.13987120	      1.05188449	      0.36183003	    -16.66138795	      9.21722626	     -0.58966665	     -5.47899782	      8.54941600	    -10.91636936	     -2.90704229	     19.09784516	     -1.87056545	     -1.98957214	      0.37004489	      4.45469577	      0.33317628	     -4.46728419	      1.83238090	      7.46852695	     -0.85980262
      1.06250000	      1.54846993	     -4.19977742	     -0.61572004	     -0.13395892	      1.05131364	      0.36164319	    -16.72937880	      9.14498137	     -0.53994954	     -5.93632797	      8.68184816	    -10.95903735	     -2.89977663	     19.00972817	     -1.75185876	     -2.21032052	      0.45368857	      3.89671458	      0.64657083	     -4.45586210	      1.92433582	      7.37941198	     -0.87072127
      1.06666667	      1.51048620	     -4.19214759	     -0.63076755	     -0.12824722	      1.05079854	      0.36148937	    -16.75098416	      9.11276228	     -0.49195097	     -6.47779242	      8.68527745	    -10.97450509	     -2.89236807	     18.92759870	     -1.70072297	     -2.31319946	      0.44279457	      3.63890482	      0.81631144	     -4.43399899	      1.97229447	      7.30866270	     -0.88128091
      1.07083333	      1.48039523	     -4.18033964	     -0.61387185	     -0.12250070	      1.05031697	      0.36132761	    -16.76883801	      9.08613205	     -0.46448118	     -7.03949108	      8.68504102	    -10.99398363	     -2.88159905	     18.85107331	     -1.64140479	     -2.41152734	      0.35606336	      3.29893237	      0.94856228	     -4.40270594	      2.06062086	      7.23651308	     -0.88526921
      1.07500000	      1.47598912	     -4.17633129	     -0.58446797	     -0.11679363	      1.04990215	      0.36114581	    -16.79633801	      9.07039801	     -0.41933082	     -7.62937306	      8.64368622	    -11.01115633	     -2.87855441	     18.74775676	     -1.59074296	     -2.38060376	      0.20582378	      3.18682198	      0.98504516	     -4.39416917	      2.13248774	      7.17647636	     -0.87948298
      1.07916667	      1.40271689	     -4.11754737	     -0.58081329	     -0.11085295	      1.04947031	      0.36097428	    -16.73303440	      8.98216583	     -0.50107814	     -8.26873897	      8.59598949	    -11.01281009	     -2.86374284	     18.70515575	     -1.48915319	     -2.49286264	      0.04009645	      2.62543029	      1.02679870	     -4.35931024	      2.19964905	      7.05261804	     -0.88143657
      1.08333333	      1.42148092	     -4.10341641	     -0.54865826	     -0.10511156	      1.04918390	      0.36081923	    -16.74937048	      8.95252115	     -0.46202503	     -8.92602572	      8.53371135	    -11.01016785	     -2.85914122	     18.58107792	     -1.44086867	     -2.44169519	     -0.20666202	      2.49118536	      1.03801492	     -4.34875499	      2.29196963	      6.98200135	     -0.87373470
      1.08750000	      1.35046174	     -4.02265056	     -0.54080418	     -0.09910319	      1.04886092	      0.36059017	    -16.63989461	      8.82876531	     -0.65487203	     -9.65310577	      8.40043116	    -10.92297838	     -2.83804139	     18.53375399	     -1.31815265	     -2.52463281	     -0.44600512	      1.87801685	      0.96989128	     -4.30758862	      2.32658925	      6.83874277	     -0.87762984
      1.09166667	      1.32485251	     -3.96359304	     -0.46713282	     -0.09316893	      1.04860566	      0.36029181	    -16.56788538	      8.74430367	     -0.82008243	    -10.38348300	      8.26222730	    -10.65257261	     -2.78866130	     18.45587779	     -1.20724125	     -2.46848975	     -0.73573617	      1.26460090	      0.70910421	     -4.21297694	      2.51727845	      6.70902846	     -0.88935209
      1.09583333	      1.34182612	     -3.91622928	     -0.47275968	     -0.08735751	      1.04850173	      0.36015489	    -16.50870509	      8.65382579	     -0.84584457	    -11.18622556	      8.17637196	    -10.64155723	     -2.77963329	     18.31498547	     -1.14791950	     -2.37598371	     -1.04621772	      1.14385900	      0.68727604	     -4.19590201	      2.56804450	      6.61290197	     -0.88517037
      1.10000000	      1.26295182	     -3.79778142	     -0.42449316	     -0.08126297	      1.04831926	      0.35977043	    -16.31572897	      8.47530089	     -1.23335277	    -12.04228661	      7.92618925	    -10.43661769	     -2.74514570	     18.28094553	     -0.97792371	     -2.41048696	     -1.37606125	      0.61934631	      0.48360806	     -4.14392059	      2.55633942	      6.42490907	     -0.88693263
      1.10416667	      1.21404668	     -3.70485064	     -0.29651490	     -0.07526400	      1.04817554	      0.35905387	    -16.12898664	      8.31244639	     -1.67107707	    -12.94439396	      7.90299466	     -9.59727200	     -2.52779162	     18.18325387	     -0.78972748	     -1.85661054	     -1.63399927	     -0.16116198	     -0.61258829	     -3.82633789	      2.81360567	      6.28504718	     -1.02658384
      1.10833333	      1.21891957	     -3.58548604	     -0.27682344	     -0.06926418	      1.04823520	      0.35876170	    -15.98185129	      8.11914375	     -1.93753068	    -13.87563313	      7.63724514	     -9.55740241	     -2.49692705	     18.05489995	     -0.64899028	     -1.89245709	     -2.00004184	     -0.39816891	     -0.64099719	     -3.78306698	      2.80007936	      6.13808594	     -1.02317355
      1.11250000	      1.24654771	     -3.44528778	     -0.15783159	     -0.06317702	      1.04833878	      0.35825144	    -15.84542325	      7.91143558	     -2.35488611	    -14.80963047	      7.17372732	     -9.11192273	     -2.37911923	     17.90011314	     -0.45252799	     -1.75927333	     -2.34254512	     -1.00069050	     -0.86695416	     -3.64512684	      2.95732367	      5.92944929	     -1.04133438
      1.11666667	      1.27705827	     -3.29730748	     -0.06355221	     -0.05714022	      1.04851058	      0.35766304	    -15.66907870	      7.66721584	     -2.82642400	    -15.82992218	      6.82211146	     -8.65979276	     -2.22099070	     17.73885404	     -0.24911008	     -1.61866312	     -2.70003965	     -1.44213530	     -1.24367626	     -3.47730548	      2.99149952	      5.72400663	     -1.09218760
      1.12083333	      1.28900567	     -3.17158072	     -0.03873559	     -0.05123057	      1.04874268	      0.35726130	    -15.43152408	      7.43617852	     -3.14546013	    -16.93095613	      6.56772713	     -8.55701327	     -2.17706829	     17.61477208	     -0.10868258	     -1.63796723	     -3.11327863	     -1.60440088	     -1.33446398	     -3.43477696	      2.89832017	      5.54886582	     -1.09827104
      1.12500000	      1.34239825	     -3.02192949	      0.12743231	     -0.04522477	      1.04901786	      0.35659702	    -15.22866202	      7.19432413	     -3.69484358	    -18.01277197	      5.97965216	     -8.07452287	     -2.07521621	     17.46991949	      0.10105812	     -1.61413195	     -3.55439283	     -2.00960311	     -1.53910716	     -3.35055270	      2.97449219	      5.29870892	     -1.10080017
      1.12916667	      1.35961646	     -2.83926663	      0.25293295	     -0.03919279	      1.04931603	      0.35561379	    -14.94251680	      6.85199115	     -4.29943098	    -19.21006757	      5.67583351	     -7.27830146	     -1.60904182	     17.28420481	      0.37730860	     -1.07958316	     -3.85472994	     -2.52714379	     -2.45184438	     -2.99309920	      3.00431577	      5.09144281	     -1.33170213
      1.13333333	      1.40054373	     -2.65038958	      0.27006389	     -0.03315174	      1.04975167	      0.35509604	    -14.65803996	      6.50588361	     -4.71498919	    -20.44257774	      5.22399028	     -7.16250674	     -1.55301562	     17.11045751	      0.58011229	     -1.17688797	     -4.26583562	     -2.65579991	     -2.42371090	     -2.95191593	      2.94378987	      4.91110435	     -1.32413714
      1.13750000	      1.51231117	     -2.46749285	      0.48666479	     -0.02723676	      1.05021886	      0.35410395	    -14.42701659	      6.17786806	     -5.37191608	    -21.66309439	      4.45528134	     -6.46828188	     -0.82216760	     16.88113731	      0.85517332	     -0.84624061	     -4.67590657	     -3.02135194	     -2.88092816	     -2.49133060	      2.91401448	      4.64864686	     -1.52563697
      1.14166667	      1.56682823	     -2.25902921	      0.53302295	     -0.02115742	      1.05073420	      0.35352735	    -14.11189663	      5.79561932	     -5.80445294	    -22.94659784	      3.69736688	     -6.21608929	     -0.64830938	     16.69277876	      1.08174704	     -0.95830586	     -5.09578434	     -3.15980550	     -2.78620021	     -2.39083518	      2.95608704	      4.36553864	     -1.48925494
